<svg width="189" height="16" viewBox="0 0 189 16" fill="none" xmlns="http://www.w3.org/2000/svg">
<path fill-rule="evenodd" clip-rule="evenodd" d="M71.1362 15.8091C70.8448 15.8091 70.665 15.5234 70.815 15.2988L80.9312 0.163358C80.9989 0.0620015 81.121 0 81.2525 0H87.2233C87.3548 0 87.4767 0.0620017 87.5444 0.163358L97.6606 15.2988C97.8108 15.5234 97.6309 15.8091 97.3395 15.8091H92.4641C92.3349 15.8091 92.2148 15.7494 92.1463 15.6508L90.1331 12.7551H78.0928L76.0795 15.6508C76.0111 15.7494 75.891 15.8091 75.7619 15.8091H71.1362ZM88.179 9.49897L84.1129 2.78457L79.9357 9.49897H88.179Z" fill="white"/>
<path d="M55.971 0.426666V12.1937H68.8606C69.0675 12.1937 69.2353 12.3446 69.2353 12.5305V15.4723C69.2353 15.6583 69.0675 15.8091 68.8606 15.8091H51.3747C51.1677 15.8091 51 15.6583 51 15.4723V0.426666C51 0.240633 51.1677 0.0898234 51.3747 0.0898234H55.5963C55.8031 0.0898234 55.971 0.240633 55.971 0.426666Z" fill="white"/>
<path fill-rule="evenodd" clip-rule="evenodd" d="M119.336 5.47931C119.336 4.1544 119.036 2.78457 117.937 1.7965C116.663 0.65123 114.889 0.0898234 109.618 0.0898234H99.3766C99.1697 0.0898234 99.0019 0.240633 99.0019 0.426666V15.4723C99.0019 15.6583 99.1697 15.8091 99.3766 15.8091H103.598C103.805 15.8091 103.973 15.6583 103.973 15.4723V10.9362H109.743C114.689 10.9362 116.613 10.3074 117.862 9.18459C119.061 8.10669 119.336 6.75932 119.336 5.47931ZM113.815 4.28914C114.19 4.62598 114.34 5.00773 114.34 5.61405C114.34 6.153 114.165 6.60212 113.84 6.89406C113.191 7.47792 111.842 7.63511 109.543 7.63511H103.973V3.70527H109.543C112.091 3.70527 113.265 3.7951 113.815 4.28914Z" fill="white"/>
<path d="M126.318 0.426666V12.1937H139.583V15.4723C139.583 15.6583 139.415 15.8091 139.208 15.8091H121.722C121.515 15.8091 121.347 15.6583 121.347 15.4723V0.426666C121.347 0.240633 121.515 0.0898234 121.722 0.0898234H125.944C126.151 0.0898234 126.318 0.240633 126.318 0.426666Z" fill="white"/>
<path d="M146.49 6.19791V3.66036H161.153V0.426666C161.153 0.240633 160.985 0.0898234 160.778 0.0898234H141.993C141.787 0.0898234 141.618 0.240633 141.618 0.426666V15.4723C141.618 15.6583 141.787 15.8091 141.993 15.8091H160.778C160.985 15.8091 161.153 15.6583 161.153 15.4723V12.2386H146.49V9.54389H160.678V6.19791H146.49Z" fill="white"/>
<path d="M182.223 15.7139L175.851 10.1502L169.327 15.7166C169.257 15.776 169.165 15.8091 169.069 15.8091H164.079C163.738 15.8091 163.575 15.4322 163.826 15.2245L172.539 8.01684L163.831 0.672291C163.583 0.463398 163.748 0.0898029 164.087 0.0898029H169.628C169.726 0.0898029 169.82 0.124145 169.889 0.185503L176.132 5.65894L182.548 0.182371C182.618 0.122938 182.71 0.0898029 182.807 0.0898029H187.798C188.139 0.0898029 188.302 0.466323 188.052 0.674256L179.467 7.79228L188.282 15.2266C188.529 15.4356 188.366 15.8091 188.026 15.8091H182.484C182.387 15.8091 182.293 15.775 182.223 15.7139Z" fill="white"/>
<path fill-rule="evenodd" clip-rule="evenodd" d="M24.0431 8.00565C24.0431 10.2513 24.7426 11.6884 26.3913 13.1706C28.0899 14.6977 31.2124 16 36.608 16C42.0037 16 45.1262 14.6977 46.8248 13.1706C48.4735 11.6885 49.1729 10.2513 49.1729 8.00565C49.1729 5.76003 48.4735 4.32283 46.8248 2.84072C45.1262 1.3137 42.0037 0.0112395 36.608 0.0112391C31.2124 0.0112391 28.0899 1.3137 26.3913 2.84072C24.7426 4.32283 24.0431 5.76003 24.0431 8.00565ZM30.438 10.9025C31.4622 11.8231 33.6104 12.6092 36.608 12.6092C39.6056 12.6092 41.7539 11.8231 42.7781 10.9025C43.5275 10.2288 44.102 9.68986 44.102 8.00565C44.102 6.32143 43.5275 5.78248 42.7781 5.1088C41.7539 4.18809 39.6056 3.40213 36.608 3.40213C33.6104 3.40213 31.4622 4.18809 30.438 5.1088C29.6886 5.78248 29.1141 6.32143 29.1141 8.00565C29.1141 9.68986 29.6886 10.2288 30.438 10.9025Z" fill="white"/>
<path d="M4.5963 0.0898234C4.80325 0.0898234 4.971 0.240633 4.971 0.426666V7.43166L17.1362 4.72905V0.426666C17.1362 0.240633 17.3039 0.0898234 17.5109 0.0898234H21.7325C21.9395 0.0898234 22.1072 0.240634 22.1072 0.426666V15.6508C22.1072 15.8369 21.9395 15.9876 21.7325 15.9876H17.5109C17.3039 15.9876 17.1362 15.8369 17.1362 15.6508V8.43402L4.971 11.1366V15.6508C4.971 15.8369 4.80325 15.9876 4.5963 15.9876H0.374698C0.167759 15.9876 0 15.8369 0 15.6508V0.426666C0 0.240633 0.167757 0.0898234 0.374698 0.0898234H4.5963Z" fill="white"/>
</svg>
